<svg width="376" height="115" viewBox="0 0 376 115" fill="none" xmlns="http://www.w3.org/2000/svg">
<path d="M28.3128 93.1158C20.4713 93.0848 14.0402 90.5743 9.01917 85.5843C3.99819 80.5943 1.4877 74.2251 1.4877 66.4767C1.4877 58.6663 3.9362 52.2661 8.83321 47.2761C13.7302 42.2861 20.0064 39.7756 27.6619 39.7446C34.4185 39.7446 40.1524 41.6507 44.8634 45.4629C49.6054 49.2752 52.4414 54.2187 53.3712 60.2934H42.0275C41.0977 57.0701 39.3155 54.4511 36.6811 52.4365C34.0466 50.4219 31.0557 49.4146 27.7084 49.4146C23.1213 49.4456 19.4331 51.0263 16.6436 54.1567C13.8542 57.287 12.4595 61.3937 12.4595 66.4767C12.4595 71.5596 13.9007 75.6663 16.7831 78.7967C19.6965 81.896 23.5087 83.4457 28.2198 83.4457C31.3501 83.4457 34.1861 82.5314 36.7276 80.7028C39.3 78.8742 41.0047 76.5031 41.8415 73.5897H53.1387C51.961 79.4785 49.094 84.2206 44.538 87.8158C40.0129 91.3801 34.6045 93.1468 28.3128 93.1158ZM69.6894 62.618V92H59.136V22.4501H69.7359L69.6894 47.1831C71.363 44.9825 73.5326 43.2314 76.198 41.9297C78.8635 40.6279 81.6374 39.9925 84.5199 40.0235C89.9748 40.0545 94.4069 41.9142 97.8162 45.6024C101.225 49.2907 102.93 54.0792 102.93 59.968V92H92.3768V61.5022C92.3768 57.9069 91.385 55.009 89.4014 52.8084C87.4178 50.5769 84.8298 49.4766 81.6374 49.5076C78.2591 49.5076 75.4232 50.7629 73.1297 53.2734C70.8361 55.7838 69.6894 58.8987 69.6894 62.618ZM133.66 93.0228C126.408 93.0228 120.457 90.5278 115.808 85.5378C111.159 80.5168 108.85 74.1166 108.881 66.3372C108.881 61.2232 109.935 56.6362 112.042 52.576C114.181 48.5158 117.141 45.37 120.922 43.1384C124.734 40.8759 129.042 39.7446 133.846 39.7446C137.256 39.7136 140.495 40.3955 143.563 41.7902C146.631 43.1849 149.111 45.0755 151.001 47.462V40.8604H161.555V92H151.048L151.094 84.9334C148.987 87.4439 146.368 89.4275 143.237 90.8842C140.107 92.3099 136.915 93.0228 133.66 93.0228ZM124.037 53.8777C121.247 57.0391 119.853 61.1922 119.853 66.3372C119.853 71.4822 121.247 75.6508 124.037 78.8432C126.857 82.0045 130.546 83.5852 135.102 83.5852C139.658 83.5852 143.516 81.9735 146.678 78.7502C149.87 75.4958 151.482 71.3582 151.513 66.3372C151.513 61.3162 149.917 57.1941 146.724 53.9707C143.563 50.7164 139.689 49.0892 135.102 49.0892C130.546 49.0892 126.857 50.6854 124.037 53.8777ZM170.248 92V40.8604H180.151V47.4155C181.577 44.998 183.483 43.1229 185.869 41.7902C188.256 40.4575 190.921 39.8066 193.866 39.8376V49.6936C189.651 49.6316 186.365 50.8403 184.01 53.3198C181.654 55.7683 180.476 59.2086 180.476 63.6408V92H170.248Z" fill="white"/>
<path d="M221.435 93.1158C213.593 93.0848 207.162 90.5743 202.141 85.5843C197.12 80.5943 194.61 74.2251 194.61 66.4767C194.61 58.6663 197.058 52.2661 201.955 47.2761C206.852 42.2861 213.128 39.7756 220.784 39.7446C227.54 39.7446 233.274 41.6507 237.985 45.4629C242.727 49.2752 245.563 54.2187 246.493 60.2934H235.149C234.22 57.0701 232.437 54.4511 229.803 52.4365C227.168 50.4219 224.178 49.4146 220.83 49.4146C216.243 49.4456 212.555 51.0263 209.765 54.1567C206.976 57.287 205.581 61.3937 205.581 66.4767C205.581 71.5596 207.023 75.6663 209.905 78.7967C212.818 81.896 216.631 83.4457 221.342 83.4457C224.472 83.4457 227.308 82.5314 229.849 80.7028C232.422 78.8742 234.127 76.5031 234.963 73.5897H246.261C245.083 79.4785 242.216 84.2206 237.66 87.8158C233.135 91.3801 227.726 93.1468 221.435 93.1158ZM275.922 93.1158C268.173 93.1468 261.804 90.6673 256.814 85.6773C251.855 80.6873 249.375 74.2871 249.375 66.4767C249.375 61.3007 250.491 56.6827 252.723 52.6225C254.985 48.5313 258.131 45.37 262.16 43.1384C266.221 40.8759 270.808 39.7446 275.922 39.7446C281.067 39.7446 285.669 40.8759 289.729 43.1384C293.789 45.37 296.951 48.5313 299.213 52.6225C301.476 56.6827 302.607 61.3007 302.607 66.4767C302.607 71.6216 301.476 76.2242 299.213 80.2844C296.951 84.3446 293.789 87.5059 289.729 89.7685C285.669 92 281.067 93.1158 275.922 93.1158ZM260.347 66.4767C260.347 71.5287 261.773 75.6198 264.624 78.7502C267.507 81.8806 271.272 83.4457 275.922 83.4457C280.633 83.4457 284.429 81.8806 287.312 78.7502C290.194 75.6198 291.62 71.5287 291.589 66.4767C291.62 61.3627 290.194 57.2405 287.312 54.1102C284.429 50.9488 280.633 49.3836 275.922 49.4146C271.242 49.3836 267.46 50.9488 264.578 54.1102C261.726 57.2405 260.316 61.3627 260.347 66.4767ZM308.744 92V40.8604H319.297V92H308.744ZM308.558 34.5377V23.1475H319.902V34.5377H308.558ZM338.451 62.5715V92H327.945V40.8604H338.219V47.555C339.769 45.1375 341.892 43.2314 344.588 41.8367C347.285 40.411 350.198 39.7136 353.328 39.7446C358.845 39.7756 363.277 41.5577 366.625 45.091C370.003 48.5933 371.692 53.2269 371.692 58.9917V92H361.139V61.0373C361.139 57.38 360.162 54.4821 358.21 52.3435C356.288 50.174 353.685 49.1047 350.399 49.1357C346.99 49.1357 344.139 50.4219 341.845 52.9944C339.583 55.5359 338.451 58.7282 338.451 62.5715Z" fill="#37FFE8"/>
<rect x="255.921" y="98.5714" width="41.254" height="5.84127" rx="0.730159" fill="#37FFE8"/>
</svg>
