<svg width="256" height="256" viewBox="0 0 256 256" fill="none" xmlns="http://www.w3.org/2000/svg">
  <!-- Big C (outer shape) -->
  <path d="M128 224C66.4 224 16 173.6 16 112C16 50.4 66.4 0 128 0C189.6 0 240 50.4 240 112C240 173.6 189.6 224 128 224ZM128 32C76.8 32 32 76.8 32 128C32 179.2 76.8 224 128 224C179.2 224 224 179.2 224 128C224 76.8 179.2 32 128 32Z" fill="#37FFE8"/>
  
  <!-- Small C (inner shape) -->
  <path d="M128 192C73.6 192 32 150.4 32 96C32 41.6 73.6 0 128 0C182.4 0 224 41.6 224 96C224 150.4 182.4 192 128 192ZM128 32C83.2 32 48 67.2 48 112C48 156.8 83.2 192 128 192C172.8 192 208 156.8 208 112C208 67.2 172.8 32 128 32Z" fill="white"/>
  
  <!-- Dashboard (bottom line) -->
  <rect x="64" y="232" width="128" height="12" rx="2" fill="#37FFE8"/>
</svg>